<svg width="1044" height="693" viewBox="0 0 1044 693" fill="none" xmlns="http://www.w3.org/2000/svg">
<rect x="457" y="328" width="130" height="55" rx="15" fill="#D9D9D9"/>
<path d="M228.739 383V324.818H239.278V374.165H264.903V383H228.739ZM274.051 383V324.818H311.892V333.653H284.591V349.449H309.932V358.284H284.591V374.165H312.119V383H274.051ZM320.088 333.653V324.818H366.509V333.653H348.526V383H338.071V333.653H320.088ZM383.724 324.818V330.614C383.724 332.28 383.402 334.013 382.759 335.812C382.134 337.593 381.272 339.297 380.173 340.926C379.075 342.536 377.825 343.919 376.423 345.074L371.651 341.977C372.692 340.405 373.601 338.71 374.378 336.892C375.154 335.055 375.543 332.981 375.543 330.67V324.818H383.724ZM424.186 340.812C423.921 338.331 422.804 336.4 420.834 335.017C418.883 333.634 416.345 332.943 413.22 332.943C411.023 332.943 409.139 333.275 407.567 333.938C405.995 334.6 404.792 335.5 403.959 336.636C403.125 337.773 402.699 339.07 402.68 340.528C402.68 341.741 402.955 342.792 403.504 343.682C404.072 344.572 404.839 345.33 405.805 345.955C406.771 346.561 407.841 347.072 409.016 347.489C410.19 347.905 411.374 348.256 412.567 348.54L418.021 349.903C420.218 350.415 422.33 351.106 424.357 351.977C426.402 352.848 428.23 353.947 429.839 355.273C431.468 356.598 432.756 358.199 433.703 360.074C434.65 361.949 435.124 364.146 435.124 366.665C435.124 370.074 434.252 373.076 432.51 375.67C430.768 378.246 428.249 380.263 424.953 381.722C421.677 383.161 417.709 383.881 413.05 383.881C408.523 383.881 404.593 383.18 401.26 381.778C397.946 380.377 395.351 378.331 393.476 375.642C391.62 372.953 390.616 369.676 390.464 365.812H400.834C400.985 367.839 401.61 369.525 402.709 370.869C403.807 372.214 405.237 373.218 406.999 373.881C408.779 374.544 410.768 374.875 412.964 374.875C415.256 374.875 417.264 374.534 418.987 373.852C420.73 373.152 422.093 372.186 423.078 370.955C424.063 369.705 424.565 368.246 424.584 366.58C424.565 365.064 424.12 363.814 423.249 362.83C422.377 361.826 421.156 360.992 419.584 360.33C418.031 359.648 416.213 359.042 414.129 358.511L407.51 356.807C402.718 355.576 398.93 353.71 396.146 351.21C393.381 348.691 391.999 345.348 391.999 341.182C391.999 337.754 392.927 334.752 394.783 332.176C396.658 329.6 399.205 327.602 402.425 326.182C405.644 324.742 409.29 324.023 413.362 324.023C417.491 324.023 421.108 324.742 424.214 326.182C427.339 327.602 429.792 329.581 431.572 332.119C433.353 334.638 434.271 337.536 434.328 340.812H424.186Z" fill="white"/>
<path d="M600.182 332.653V323.818H646.602V332.653H628.619V382H618.165V332.653H600.182ZM655.991 382H644.741L665.224 323.818H678.236L698.747 382H687.497L671.957 335.75H671.503L655.991 382ZM656.361 359.188H687.043V367.653H656.361V359.188ZM706.411 382V323.818H716.95V373.165H742.575V382H706.411ZM751.723 382V323.818H762.263V350.551H762.973L785.672 323.818H798.541L776.041 349.926L798.74 382H786.07L768.712 357.057L762.263 364.67V382H751.723Z" fill="white"/>
</svg>
