<svg width="1044" height="693" viewBox="0 0 1044 693" fill="none" xmlns="http://www.w3.org/2000/svg">
<rect x="392" y="281" width="260" height="130" rx="15" fill="#D9D9D9"/>
<path d="M30.1818 393V299.909H47.0455V378.864H88.0455V393H30.1818ZM102.682 393V299.909H163.227V314.045H119.545V339.318H160.091V353.455H119.545V378.864H163.591V393H102.682ZM176.341 314.045V299.909H250.614V314.045H221.841V393H205.114V314.045H176.341ZM278.159 299.909V309.182C278.159 311.848 277.644 314.621 276.614 317.5C275.614 320.348 274.235 323.076 272.477 325.682C270.72 328.258 268.72 330.47 266.477 332.318L258.841 327.364C260.508 324.848 261.962 322.136 263.205 319.227C264.447 316.288 265.068 312.97 265.068 309.273V299.909H278.159ZM342.898 325.5C342.473 321.53 340.686 318.439 337.534 316.227C334.413 314.015 330.352 312.909 325.352 312.909C321.837 312.909 318.822 313.439 316.307 314.5C313.792 315.561 311.867 317 310.534 318.818C309.201 320.636 308.519 322.712 308.489 325.045C308.489 326.985 308.928 328.667 309.807 330.091C310.716 331.515 311.943 332.727 313.489 333.727C315.034 334.697 316.746 335.515 318.625 336.182C320.504 336.848 322.398 337.409 324.307 337.864L333.034 340.045C336.549 340.864 339.928 341.97 343.17 343.364C346.443 344.758 349.367 346.515 351.943 348.636C354.549 350.758 356.61 353.318 358.125 356.318C359.64 359.318 360.398 362.833 360.398 366.864C360.398 372.318 359.004 377.121 356.216 381.273C353.428 385.394 349.398 388.621 344.125 390.955C338.883 393.258 332.534 394.409 325.08 394.409C317.837 394.409 311.549 393.288 306.216 391.045C300.913 388.803 296.761 385.53 293.761 381.227C290.792 376.924 289.186 371.682 288.943 365.5H305.534C305.777 368.742 306.777 371.439 308.534 373.591C310.292 375.742 312.58 377.348 315.398 378.409C318.246 379.47 321.428 380 324.943 380C328.61 380 331.822 379.455 334.58 378.364C337.367 377.242 339.549 375.697 341.125 373.727C342.701 371.727 343.504 369.394 343.534 366.727C343.504 364.303 342.792 362.303 341.398 360.727C340.004 359.121 338.049 357.788 335.534 356.727C333.049 355.636 330.14 354.667 326.807 353.818L316.216 351.091C308.549 349.121 302.489 346.136 298.034 342.136C293.61 338.106 291.398 332.758 291.398 326.091C291.398 320.606 292.883 315.803 295.852 311.682C298.852 307.561 302.928 304.364 308.08 302.091C313.231 299.788 319.064 298.636 325.58 298.636C332.186 298.636 337.973 299.788 342.943 302.091C347.943 304.364 351.867 307.53 354.716 311.591C357.564 315.621 359.034 320.258 359.125 325.5H342.898Z" fill="white"/>
<path d="M676.091 314.045V299.909H750.364V314.045H721.591V393H704.864V314.045H676.091ZM765.386 393H747.386L780.159 299.909H800.977L833.795 393H815.795L790.932 319H790.205L765.386 393ZM765.977 356.5H815.068V370.045H765.977V356.5ZM846.057 393V299.909H862.92V378.864H903.92V393H846.057ZM918.557 393V299.909H935.42V342.682H936.557L972.875 299.909H993.466L957.466 341.682L993.784 393H973.511L945.739 353.091L935.42 365.273V393H918.557Z" fill="white"/>
</svg>
