<svg width="1044" height="693" viewBox="0 0 1044 693" fill="none" xmlns="http://www.w3.org/2000/svg">
<g clip-path="url(#clip0_144_2)">
<rect x="418" y="291" width="260" height="110" rx="15" fill="#D9D9D9"/>
<path d="M53.1818 393V299.909H70.0455V378.864H111.045V393H53.1818ZM125.682 393V299.909H186.227V314.045H142.545V339.318H183.091V353.455H142.545V378.864H186.591V393H125.682ZM199.341 314.045V299.909H273.614V314.045H244.841V393H228.114V314.045H199.341ZM301.159 299.909V309.182C301.159 311.848 300.644 314.621 299.614 317.5C298.614 320.348 297.235 323.076 295.477 325.682C293.72 328.258 291.72 330.47 289.477 332.318L281.841 327.364C283.508 324.848 284.962 322.136 286.205 319.227C287.447 316.288 288.068 312.97 288.068 309.273V299.909H301.159ZM365.898 325.5C365.473 321.53 363.686 318.439 360.534 316.227C357.413 314.015 353.352 312.909 348.352 312.909C344.837 312.909 341.822 313.439 339.307 314.5C336.792 315.561 334.867 317 333.534 318.818C332.201 320.636 331.519 322.712 331.489 325.045C331.489 326.985 331.928 328.667 332.807 330.091C333.716 331.515 334.943 332.727 336.489 333.727C338.034 334.697 339.746 335.515 341.625 336.182C343.504 336.848 345.398 337.409 347.307 337.864L356.034 340.045C359.549 340.864 362.928 341.97 366.17 343.364C369.443 344.758 372.367 346.515 374.943 348.636C377.549 350.758 379.61 353.318 381.125 356.318C382.64 359.318 383.398 362.833 383.398 366.864C383.398 372.318 382.004 377.121 379.216 381.273C376.428 385.394 372.398 388.621 367.125 390.955C361.883 393.258 355.534 394.409 348.08 394.409C340.837 394.409 334.549 393.288 329.216 391.045C323.913 388.803 319.761 385.53 316.761 381.227C313.792 376.924 312.186 371.682 311.943 365.5H328.534C328.777 368.742 329.777 371.439 331.534 373.591C333.292 375.742 335.58 377.348 338.398 378.409C341.246 379.47 344.428 380 347.943 380C351.61 380 354.822 379.455 357.58 378.364C360.367 377.242 362.549 375.697 364.125 373.727C365.701 371.727 366.504 369.394 366.534 366.727C366.504 364.303 365.792 362.303 364.398 360.727C363.004 359.121 361.049 357.788 358.534 356.727C356.049 355.636 353.14 354.667 349.807 353.818L339.216 351.091C331.549 349.121 325.489 346.136 321.034 342.136C316.61 338.106 314.398 332.758 314.398 326.091C314.398 320.606 315.883 315.803 318.852 311.682C321.852 307.561 325.928 304.364 331.08 302.091C336.231 299.788 342.064 298.636 348.58 298.636C355.186 298.636 360.973 299.788 365.943 302.091C370.943 304.364 374.867 307.53 377.716 311.591C380.564 315.621 382.034 320.258 382.125 325.5H365.898Z" fill="white"/>
<path d="M703.091 314.045V299.909H777.364V314.045H748.591V393H731.864V314.045H703.091ZM792.386 393H774.386L807.159 299.909H827.977L860.795 393H842.795L817.932 319H817.205L792.386 393ZM792.977 356.5H842.068V370.045H792.977V356.5ZM873.057 393V299.909H889.92V378.864H930.92V393H873.057ZM945.557 393V299.909H962.42V342.682H963.557L999.875 299.909H1020.47L984.466 341.682L1020.78 393H1000.51L972.739 353.091L962.42 365.273V393H945.557Z" fill="white"/>
</g>
<defs>
<clipPath id="clip0_144_2">
<rect width="1044" height="693" fill="white"/>
</clipPath>
</defs>
</svg>
